<mxfile host="app.diagrams.net" modified="2021-05-24T19:16:53.195Z" agent="5.0 (Windows NT 10.0; Win64; x64) AppleWebKit/537.36 (KHTML, like Gecko) Chrome/90.0.4430.212 Safari/537.36" etag="LSot6PMUk04looSle-8M" version="14.7.0" type="github" pages="2">
  <diagram name="Modelo Conceitual" id="ySdfMMMsVqPXPJPMSZyq">
    <mxGraphModel dx="1150" dy="1133" grid="1" gridSize="10" guides="1" tooltips="1" connect="1" arrows="1" fold="1" page="1" pageScale="1" pageWidth="827" pageHeight="1169" math="0" shadow="0">
      <root>
        <mxCell id="SawGWbbHjIbIcDN6ZOtn-0" />
        <mxCell id="SawGWbbHjIbIcDN6ZOtn-1" parent="SawGWbbHjIbIcDN6ZOtn-0" />
        <mxCell id="SawGWbbHjIbIcDN6ZOtn-3" value="Invoice" style="swimlane;fontStyle=2;align=center;verticalAlign=top;childLayout=stackLayout;horizontal=1;startSize=26;horizontalStack=0;resizeParent=1;resizeLast=0;collapsible=1;marginBottom=0;rounded=0;shadow=0;strokeWidth=1;" vertex="1" parent="SawGWbbHjIbIcDN6ZOtn-1">
          <mxGeometry x="80.07999999999998" y="180" width="160" height="260" as="geometry">
            <mxRectangle x="230" y="140" width="160" height="26" as="alternateBounds" />
          </mxGeometry>
        </mxCell>
        <mxCell id="SawGWbbHjIbIcDN6ZOtn-4" value="InvoiceId&#xa;" style="text;align=left;verticalAlign=top;spacingLeft=4;spacingRight=4;overflow=hidden;rotatable=0;points=[[0,0.5],[1,0.5]];portConstraint=eastwest;" vertex="1" parent="SawGWbbHjIbIcDN6ZOtn-3">
          <mxGeometry y="26" width="160" height="26" as="geometry" />
        </mxCell>
        <mxCell id="SawGWbbHjIbIcDN6ZOtn-5" value="CustomerId" style="text;align=left;verticalAlign=top;spacingLeft=4;spacingRight=4;overflow=hidden;rotatable=0;points=[[0,0.5],[1,0.5]];portConstraint=eastwest;" vertex="1" parent="SawGWbbHjIbIcDN6ZOtn-3">
          <mxGeometry y="52" width="160" height="26" as="geometry" />
        </mxCell>
        <mxCell id="SawGWbbHjIbIcDN6ZOtn-6" value="InvoiceDate" style="text;align=left;verticalAlign=top;spacingLeft=4;spacingRight=4;overflow=hidden;rotatable=0;points=[[0,0.5],[1,0.5]];portConstraint=eastwest;rounded=0;shadow=0;html=0;" vertex="1" parent="SawGWbbHjIbIcDN6ZOtn-3">
          <mxGeometry y="78" width="160" height="26" as="geometry" />
        </mxCell>
        <mxCell id="SawGWbbHjIbIcDN6ZOtn-7" value="BillingAddress" style="text;align=left;verticalAlign=top;spacingLeft=4;spacingRight=4;overflow=hidden;rotatable=0;points=[[0,0.5],[1,0.5]];portConstraint=eastwest;rounded=0;shadow=0;html=0;" vertex="1" parent="SawGWbbHjIbIcDN6ZOtn-3">
          <mxGeometry y="104" width="160" height="26" as="geometry" />
        </mxCell>
        <mxCell id="SawGWbbHjIbIcDN6ZOtn-8" value="BilliingCity" style="text;align=left;verticalAlign=top;spacingLeft=4;spacingRight=4;overflow=hidden;rotatable=0;points=[[0,0.5],[1,0.5]];portConstraint=eastwest;" vertex="1" parent="SawGWbbHjIbIcDN6ZOtn-3">
          <mxGeometry y="130" width="160" height="26" as="geometry" />
        </mxCell>
        <mxCell id="SawGWbbHjIbIcDN6ZOtn-9" value="BillingState" style="text;align=left;verticalAlign=top;spacingLeft=4;spacingRight=4;overflow=hidden;rotatable=0;points=[[0,0.5],[1,0.5]];portConstraint=eastwest;" vertex="1" parent="SawGWbbHjIbIcDN6ZOtn-3">
          <mxGeometry y="156" width="160" height="26" as="geometry" />
        </mxCell>
        <mxCell id="SawGWbbHjIbIcDN6ZOtn-10" value="BillingCountry" style="text;align=left;verticalAlign=top;spacingLeft=4;spacingRight=4;overflow=hidden;rotatable=0;points=[[0,0.5],[1,0.5]];portConstraint=eastwest;" vertex="1" parent="SawGWbbHjIbIcDN6ZOtn-3">
          <mxGeometry y="182" width="160" height="26" as="geometry" />
        </mxCell>
        <mxCell id="SawGWbbHjIbIcDN6ZOtn-11" value="BillingPostalCode" style="text;align=left;verticalAlign=top;spacingLeft=4;spacingRight=4;overflow=hidden;rotatable=0;points=[[0,0.5],[1,0.5]];portConstraint=eastwest;" vertex="1" parent="SawGWbbHjIbIcDN6ZOtn-3">
          <mxGeometry y="208" width="160" height="26" as="geometry" />
        </mxCell>
        <mxCell id="SawGWbbHjIbIcDN6ZOtn-12" value="Total" style="text;align=left;verticalAlign=top;spacingLeft=4;spacingRight=4;overflow=hidden;rotatable=0;points=[[0,0.5],[1,0.5]];portConstraint=eastwest;" vertex="1" parent="SawGWbbHjIbIcDN6ZOtn-3">
          <mxGeometry y="234" width="160" height="26" as="geometry" />
        </mxCell>
        <mxCell id="SawGWbbHjIbIcDN6ZOtn-13" value="InvoiceLine" style="swimlane;fontStyle=0;align=center;verticalAlign=top;childLayout=stackLayout;horizontal=1;startSize=26;horizontalStack=0;resizeParent=1;resizeLast=0;collapsible=1;marginBottom=0;rounded=0;shadow=0;strokeWidth=1;" vertex="1" parent="SawGWbbHjIbIcDN6ZOtn-1">
          <mxGeometry x="80.08" y="590" width="160" height="156" as="geometry">
            <mxRectangle x="130" y="380" width="160" height="26" as="alternateBounds" />
          </mxGeometry>
        </mxCell>
        <mxCell id="SawGWbbHjIbIcDN6ZOtn-14" value="InvoiceLineId" style="text;align=left;verticalAlign=top;spacingLeft=4;spacingRight=4;overflow=hidden;rotatable=0;points=[[0,0.5],[1,0.5]];portConstraint=eastwest;" vertex="1" parent="SawGWbbHjIbIcDN6ZOtn-13">
          <mxGeometry y="26" width="160" height="26" as="geometry" />
        </mxCell>
        <mxCell id="SawGWbbHjIbIcDN6ZOtn-15" value="InvoiceId" style="text;align=left;verticalAlign=top;spacingLeft=4;spacingRight=4;overflow=hidden;rotatable=0;points=[[0,0.5],[1,0.5]];portConstraint=eastwest;rounded=0;shadow=0;html=0;" vertex="1" parent="SawGWbbHjIbIcDN6ZOtn-13">
          <mxGeometry y="52" width="160" height="26" as="geometry" />
        </mxCell>
        <mxCell id="SawGWbbHjIbIcDN6ZOtn-16" value="TrackId" style="text;align=left;verticalAlign=top;spacingLeft=4;spacingRight=4;overflow=hidden;rotatable=0;points=[[0,0.5],[1,0.5]];portConstraint=eastwest;fontStyle=4" vertex="1" parent="SawGWbbHjIbIcDN6ZOtn-13">
          <mxGeometry y="78" width="160" height="26" as="geometry" />
        </mxCell>
        <mxCell id="SawGWbbHjIbIcDN6ZOtn-17" value="UnitPrice" style="text;align=left;verticalAlign=top;spacingLeft=4;spacingRight=4;overflow=hidden;rotatable=0;points=[[0,0.5],[1,0.5]];portConstraint=eastwest;" vertex="1" parent="SawGWbbHjIbIcDN6ZOtn-13">
          <mxGeometry y="104" width="160" height="26" as="geometry" />
        </mxCell>
        <mxCell id="SawGWbbHjIbIcDN6ZOtn-18" value="Quantity" style="text;align=left;verticalAlign=top;spacingLeft=4;spacingRight=4;overflow=hidden;rotatable=0;points=[[0,0.5],[1,0.5]];portConstraint=eastwest;" vertex="1" parent="SawGWbbHjIbIcDN6ZOtn-13">
          <mxGeometry y="130" width="160" height="26" as="geometry" />
        </mxCell>
        <mxCell id="SawGWbbHjIbIcDN6ZOtn-19" value="" style="endArrow=block;endSize=10;endFill=0;shadow=0;strokeWidth=1;rounded=0;edgeStyle=elbowEdgeStyle;elbow=vertical;" edge="1" parent="SawGWbbHjIbIcDN6ZOtn-1" source="SawGWbbHjIbIcDN6ZOtn-13" target="SawGWbbHjIbIcDN6ZOtn-3">
          <mxGeometry width="160" relative="1" as="geometry">
            <mxPoint x="180.07999999999998" y="263" as="sourcePoint" />
            <mxPoint x="180.07999999999998" y="263" as="targetPoint" />
          </mxGeometry>
        </mxCell>
        <mxCell id="SawGWbbHjIbIcDN6ZOtn-20" value="Track" style="swimlane;fontStyle=0;align=center;verticalAlign=top;childLayout=stackLayout;horizontal=1;startSize=26;horizontalStack=0;resizeParent=1;resizeLast=0;collapsible=1;marginBottom=0;rounded=0;shadow=0;strokeWidth=1;" vertex="1" parent="SawGWbbHjIbIcDN6ZOtn-1">
          <mxGeometry x="270.00000000000006" y="650" width="160" height="260" as="geometry">
            <mxRectangle x="340" y="380" width="170" height="26" as="alternateBounds" />
          </mxGeometry>
        </mxCell>
        <mxCell id="SawGWbbHjIbIcDN6ZOtn-21" value="TrackId" style="text;align=left;verticalAlign=top;spacingLeft=4;spacingRight=4;overflow=hidden;rotatable=0;points=[[0,0.5],[1,0.5]];portConstraint=eastwest;" vertex="1" parent="SawGWbbHjIbIcDN6ZOtn-20">
          <mxGeometry y="26" width="160" height="26" as="geometry" />
        </mxCell>
        <mxCell id="SawGWbbHjIbIcDN6ZOtn-22" value="Name" style="text;align=left;verticalAlign=top;spacingLeft=4;spacingRight=4;overflow=hidden;rotatable=0;points=[[0,0.5],[1,0.5]];portConstraint=eastwest;" vertex="1" parent="SawGWbbHjIbIcDN6ZOtn-20">
          <mxGeometry y="52" width="160" height="26" as="geometry" />
        </mxCell>
        <mxCell id="SawGWbbHjIbIcDN6ZOtn-23" value="AlbumId" style="text;align=left;verticalAlign=top;spacingLeft=4;spacingRight=4;overflow=hidden;rotatable=0;points=[[0,0.5],[1,0.5]];portConstraint=eastwest;" vertex="1" parent="SawGWbbHjIbIcDN6ZOtn-20">
          <mxGeometry y="78" width="160" height="26" as="geometry" />
        </mxCell>
        <mxCell id="SawGWbbHjIbIcDN6ZOtn-24" value="MediaTypeId" style="text;align=left;verticalAlign=top;spacingLeft=4;spacingRight=4;overflow=hidden;rotatable=0;points=[[0,0.5],[1,0.5]];portConstraint=eastwest;" vertex="1" parent="SawGWbbHjIbIcDN6ZOtn-20">
          <mxGeometry y="104" width="160" height="26" as="geometry" />
        </mxCell>
        <mxCell id="SawGWbbHjIbIcDN6ZOtn-25" value="GenreId" style="text;align=left;verticalAlign=top;spacingLeft=4;spacingRight=4;overflow=hidden;rotatable=0;points=[[0,0.5],[1,0.5]];portConstraint=eastwest;" vertex="1" parent="SawGWbbHjIbIcDN6ZOtn-20">
          <mxGeometry y="130" width="160" height="26" as="geometry" />
        </mxCell>
        <mxCell id="SawGWbbHjIbIcDN6ZOtn-26" value="Composer" style="text;align=left;verticalAlign=top;spacingLeft=4;spacingRight=4;overflow=hidden;rotatable=0;points=[[0,0.5],[1,0.5]];portConstraint=eastwest;" vertex="1" parent="SawGWbbHjIbIcDN6ZOtn-20">
          <mxGeometry y="156" width="160" height="26" as="geometry" />
        </mxCell>
        <mxCell id="SawGWbbHjIbIcDN6ZOtn-27" value="Milliseconds&#xa;" style="text;align=left;verticalAlign=top;spacingLeft=4;spacingRight=4;overflow=hidden;rotatable=0;points=[[0,0.5],[1,0.5]];portConstraint=eastwest;" vertex="1" parent="SawGWbbHjIbIcDN6ZOtn-20">
          <mxGeometry y="182" width="160" height="26" as="geometry" />
        </mxCell>
        <mxCell id="SawGWbbHjIbIcDN6ZOtn-28" value="Bytes" style="text;align=left;verticalAlign=top;spacingLeft=4;spacingRight=4;overflow=hidden;rotatable=0;points=[[0,0.5],[1,0.5]];portConstraint=eastwest;" vertex="1" parent="SawGWbbHjIbIcDN6ZOtn-20">
          <mxGeometry y="208" width="160" height="26" as="geometry" />
        </mxCell>
        <mxCell id="SawGWbbHjIbIcDN6ZOtn-29" value="UnitPrice" style="text;align=left;verticalAlign=top;spacingLeft=4;spacingRight=4;overflow=hidden;rotatable=0;points=[[0,0.5],[1,0.5]];portConstraint=eastwest;" vertex="1" parent="SawGWbbHjIbIcDN6ZOtn-20">
          <mxGeometry y="234" width="160" height="26" as="geometry" />
        </mxCell>
        <mxCell id="SawGWbbHjIbIcDN6ZOtn-30" value="Customer" style="swimlane;fontStyle=0;align=center;verticalAlign=top;childLayout=stackLayout;horizontal=1;startSize=26;horizontalStack=0;resizeParent=1;resizeLast=0;collapsible=1;marginBottom=0;rounded=0;shadow=0;strokeWidth=1;" vertex="1" parent="SawGWbbHjIbIcDN6ZOtn-1">
          <mxGeometry x="369.9999999999999" y="160" width="160" height="364" as="geometry">
            <mxRectangle x="550" y="140" width="160" height="26" as="alternateBounds" />
          </mxGeometry>
        </mxCell>
        <mxCell id="SawGWbbHjIbIcDN6ZOtn-31" value="CustomerId" style="text;align=left;verticalAlign=top;spacingLeft=4;spacingRight=4;overflow=hidden;rotatable=0;points=[[0,0.5],[1,0.5]];portConstraint=eastwest;" vertex="1" parent="SawGWbbHjIbIcDN6ZOtn-30">
          <mxGeometry y="26" width="160" height="26" as="geometry" />
        </mxCell>
        <mxCell id="SawGWbbHjIbIcDN6ZOtn-32" value="FirstName" style="text;align=left;verticalAlign=top;spacingLeft=4;spacingRight=4;overflow=hidden;rotatable=0;points=[[0,0.5],[1,0.5]];portConstraint=eastwest;rounded=0;shadow=0;html=0;" vertex="1" parent="SawGWbbHjIbIcDN6ZOtn-30">
          <mxGeometry y="52" width="160" height="26" as="geometry" />
        </mxCell>
        <mxCell id="SawGWbbHjIbIcDN6ZOtn-33" value="LastName" style="text;align=left;verticalAlign=top;spacingLeft=4;spacingRight=4;overflow=hidden;rotatable=0;points=[[0,0.5],[1,0.5]];portConstraint=eastwest;rounded=0;shadow=0;html=0;" vertex="1" parent="SawGWbbHjIbIcDN6ZOtn-30">
          <mxGeometry y="78" width="160" height="26" as="geometry" />
        </mxCell>
        <mxCell id="SawGWbbHjIbIcDN6ZOtn-34" value="Company" style="text;align=left;verticalAlign=top;spacingLeft=4;spacingRight=4;overflow=hidden;rotatable=0;points=[[0,0.5],[1,0.5]];portConstraint=eastwest;rounded=0;shadow=0;html=0;" vertex="1" parent="SawGWbbHjIbIcDN6ZOtn-30">
          <mxGeometry y="104" width="160" height="26" as="geometry" />
        </mxCell>
        <mxCell id="SawGWbbHjIbIcDN6ZOtn-35" value="Address" style="text;align=left;verticalAlign=top;spacingLeft=4;spacingRight=4;overflow=hidden;rotatable=0;points=[[0,0.5],[1,0.5]];portConstraint=eastwest;rounded=0;shadow=0;html=0;" vertex="1" parent="SawGWbbHjIbIcDN6ZOtn-30">
          <mxGeometry y="130" width="160" height="26" as="geometry" />
        </mxCell>
        <mxCell id="SawGWbbHjIbIcDN6ZOtn-36" value="City" style="text;align=left;verticalAlign=top;spacingLeft=4;spacingRight=4;overflow=hidden;rotatable=0;points=[[0,0.5],[1,0.5]];portConstraint=eastwest;" vertex="1" parent="SawGWbbHjIbIcDN6ZOtn-30">
          <mxGeometry y="156" width="160" height="26" as="geometry" />
        </mxCell>
        <mxCell id="SawGWbbHjIbIcDN6ZOtn-37" value="State" style="text;align=left;verticalAlign=top;spacingLeft=4;spacingRight=4;overflow=hidden;rotatable=0;points=[[0,0.5],[1,0.5]];portConstraint=eastwest;" vertex="1" parent="SawGWbbHjIbIcDN6ZOtn-30">
          <mxGeometry y="182" width="160" height="26" as="geometry" />
        </mxCell>
        <mxCell id="SawGWbbHjIbIcDN6ZOtn-38" value="Country" style="text;align=left;verticalAlign=top;spacingLeft=4;spacingRight=4;overflow=hidden;rotatable=0;points=[[0,0.5],[1,0.5]];portConstraint=eastwest;" vertex="1" parent="SawGWbbHjIbIcDN6ZOtn-30">
          <mxGeometry y="208" width="160" height="26" as="geometry" />
        </mxCell>
        <mxCell id="SawGWbbHjIbIcDN6ZOtn-39" value="PostalCode" style="text;align=left;verticalAlign=top;spacingLeft=4;spacingRight=4;overflow=hidden;rotatable=0;points=[[0,0.5],[1,0.5]];portConstraint=eastwest;" vertex="1" parent="SawGWbbHjIbIcDN6ZOtn-30">
          <mxGeometry y="234" width="160" height="26" as="geometry" />
        </mxCell>
        <mxCell id="SawGWbbHjIbIcDN6ZOtn-40" value="Phone" style="text;align=left;verticalAlign=top;spacingLeft=4;spacingRight=4;overflow=hidden;rotatable=0;points=[[0,0.5],[1,0.5]];portConstraint=eastwest;" vertex="1" parent="SawGWbbHjIbIcDN6ZOtn-30">
          <mxGeometry y="260" width="160" height="26" as="geometry" />
        </mxCell>
        <mxCell id="SawGWbbHjIbIcDN6ZOtn-41" value="Fax" style="text;align=left;verticalAlign=top;spacingLeft=4;spacingRight=4;overflow=hidden;rotatable=0;points=[[0,0.5],[1,0.5]];portConstraint=eastwest;" vertex="1" parent="SawGWbbHjIbIcDN6ZOtn-30">
          <mxGeometry y="286" width="160" height="26" as="geometry" />
        </mxCell>
        <mxCell id="SawGWbbHjIbIcDN6ZOtn-42" value="Email" style="text;align=left;verticalAlign=top;spacingLeft=4;spacingRight=4;overflow=hidden;rotatable=0;points=[[0,0.5],[1,0.5]];portConstraint=eastwest;" vertex="1" parent="SawGWbbHjIbIcDN6ZOtn-30">
          <mxGeometry y="312" width="160" height="26" as="geometry" />
        </mxCell>
        <mxCell id="SawGWbbHjIbIcDN6ZOtn-43" value="SupportRepId" style="text;align=left;verticalAlign=top;spacingLeft=4;spacingRight=4;overflow=hidden;rotatable=0;points=[[0,0.5],[1,0.5]];portConstraint=eastwest;" vertex="1" parent="SawGWbbHjIbIcDN6ZOtn-30">
          <mxGeometry y="338" width="160" height="26" as="geometry" />
        </mxCell>
        <mxCell id="SawGWbbHjIbIcDN6ZOtn-44" value="" style="endArrow=open;shadow=0;strokeWidth=1;rounded=0;endFill=1;edgeStyle=elbowEdgeStyle;elbow=vertical;" edge="1" parent="SawGWbbHjIbIcDN6ZOtn-1" source="SawGWbbHjIbIcDN6ZOtn-3" target="SawGWbbHjIbIcDN6ZOtn-30">
          <mxGeometry x="0.5" y="41" relative="1" as="geometry">
            <mxPoint x="360.08000000000004" y="252" as="sourcePoint" />
            <mxPoint x="520.08" y="252" as="targetPoint" />
            <mxPoint x="-40" y="32" as="offset" />
          </mxGeometry>
        </mxCell>
        <mxCell id="SawGWbbHjIbIcDN6ZOtn-45" value="Fatura do Cliente tal" style="edgeLabel;html=1;align=center;verticalAlign=middle;resizable=0;points=[];" vertex="1" connectable="0" parent="SawGWbbHjIbIcDN6ZOtn-44">
          <mxGeometry x="0.3377" y="1" relative="1" as="geometry">
            <mxPoint x="-27" y="2" as="offset" />
          </mxGeometry>
        </mxCell>
        <mxCell id="SawGWbbHjIbIcDN6ZOtn-46" value="Employee" style="swimlane;fontStyle=0;align=center;verticalAlign=top;childLayout=stackLayout;horizontal=1;startSize=26;horizontalStack=0;resizeParent=1;resizeLast=0;collapsible=1;marginBottom=0;rounded=0;shadow=0;strokeWidth=1;" vertex="1" parent="SawGWbbHjIbIcDN6ZOtn-1">
          <mxGeometry x="649.9999999999999" y="120" width="160" height="420" as="geometry">
            <mxRectangle x="550" y="140" width="160" height="26" as="alternateBounds" />
          </mxGeometry>
        </mxCell>
        <mxCell id="SawGWbbHjIbIcDN6ZOtn-47" value="EmployeeId" style="text;align=left;verticalAlign=top;spacingLeft=4;spacingRight=4;overflow=hidden;rotatable=0;points=[[0,0.5],[1,0.5]];portConstraint=eastwest;" vertex="1" parent="SawGWbbHjIbIcDN6ZOtn-46">
          <mxGeometry y="26" width="160" height="26" as="geometry" />
        </mxCell>
        <mxCell id="SawGWbbHjIbIcDN6ZOtn-48" value="FirstName" style="text;align=left;verticalAlign=top;spacingLeft=4;spacingRight=4;overflow=hidden;rotatable=0;points=[[0,0.5],[1,0.5]];portConstraint=eastwest;rounded=0;shadow=0;html=0;" vertex="1" parent="SawGWbbHjIbIcDN6ZOtn-46">
          <mxGeometry y="52" width="160" height="26" as="geometry" />
        </mxCell>
        <mxCell id="SawGWbbHjIbIcDN6ZOtn-49" value="LastName" style="text;align=left;verticalAlign=top;spacingLeft=4;spacingRight=4;overflow=hidden;rotatable=0;points=[[0,0.5],[1,0.5]];portConstraint=eastwest;rounded=0;shadow=0;html=0;" vertex="1" parent="SawGWbbHjIbIcDN6ZOtn-46">
          <mxGeometry y="78" width="160" height="26" as="geometry" />
        </mxCell>
        <mxCell id="SawGWbbHjIbIcDN6ZOtn-50" value="Title" style="text;align=left;verticalAlign=top;spacingLeft=4;spacingRight=4;overflow=hidden;rotatable=0;points=[[0,0.5],[1,0.5]];portConstraint=eastwest;rounded=0;shadow=0;html=0;" vertex="1" parent="SawGWbbHjIbIcDN6ZOtn-46">
          <mxGeometry y="104" width="160" height="26" as="geometry" />
        </mxCell>
        <mxCell id="SawGWbbHjIbIcDN6ZOtn-51" value="ReportsTo&#xa;" style="text;align=left;verticalAlign=top;spacingLeft=4;spacingRight=4;overflow=hidden;rotatable=0;points=[[0,0.5],[1,0.5]];portConstraint=eastwest;rounded=0;shadow=0;html=0;" vertex="1" parent="SawGWbbHjIbIcDN6ZOtn-46">
          <mxGeometry y="130" width="160" height="26" as="geometry" />
        </mxCell>
        <mxCell id="SawGWbbHjIbIcDN6ZOtn-52" value="BirthDate" style="text;align=left;verticalAlign=top;spacingLeft=4;spacingRight=4;overflow=hidden;rotatable=0;points=[[0,0.5],[1,0.5]];portConstraint=eastwest;" vertex="1" parent="SawGWbbHjIbIcDN6ZOtn-46">
          <mxGeometry y="156" width="160" height="26" as="geometry" />
        </mxCell>
        <mxCell id="SawGWbbHjIbIcDN6ZOtn-53" value="HireDate" style="text;align=left;verticalAlign=top;spacingLeft=4;spacingRight=4;overflow=hidden;rotatable=0;points=[[0,0.5],[1,0.5]];portConstraint=eastwest;" vertex="1" parent="SawGWbbHjIbIcDN6ZOtn-46">
          <mxGeometry y="182" width="160" height="26" as="geometry" />
        </mxCell>
        <mxCell id="SawGWbbHjIbIcDN6ZOtn-54" value="Address" style="text;align=left;verticalAlign=top;spacingLeft=4;spacingRight=4;overflow=hidden;rotatable=0;points=[[0,0.5],[1,0.5]];portConstraint=eastwest;rounded=0;shadow=0;html=0;" vertex="1" parent="SawGWbbHjIbIcDN6ZOtn-46">
          <mxGeometry y="208" width="160" height="26" as="geometry" />
        </mxCell>
        <mxCell id="SawGWbbHjIbIcDN6ZOtn-55" value="City" style="text;align=left;verticalAlign=top;spacingLeft=4;spacingRight=4;overflow=hidden;rotatable=0;points=[[0,0.5],[1,0.5]];portConstraint=eastwest;" vertex="1" parent="SawGWbbHjIbIcDN6ZOtn-46">
          <mxGeometry y="234" width="160" height="26" as="geometry" />
        </mxCell>
        <mxCell id="SawGWbbHjIbIcDN6ZOtn-56" value="State" style="text;align=left;verticalAlign=top;spacingLeft=4;spacingRight=4;overflow=hidden;rotatable=0;points=[[0,0.5],[1,0.5]];portConstraint=eastwest;" vertex="1" parent="SawGWbbHjIbIcDN6ZOtn-46">
          <mxGeometry y="260" width="160" height="26" as="geometry" />
        </mxCell>
        <mxCell id="SawGWbbHjIbIcDN6ZOtn-57" value="Country" style="text;align=left;verticalAlign=top;spacingLeft=4;spacingRight=4;overflow=hidden;rotatable=0;points=[[0,0.5],[1,0.5]];portConstraint=eastwest;" vertex="1" parent="SawGWbbHjIbIcDN6ZOtn-46">
          <mxGeometry y="286" width="160" height="26" as="geometry" />
        </mxCell>
        <mxCell id="SawGWbbHjIbIcDN6ZOtn-58" value="PostalCode" style="text;align=left;verticalAlign=top;spacingLeft=4;spacingRight=4;overflow=hidden;rotatable=0;points=[[0,0.5],[1,0.5]];portConstraint=eastwest;" vertex="1" parent="SawGWbbHjIbIcDN6ZOtn-46">
          <mxGeometry y="312" width="160" height="26" as="geometry" />
        </mxCell>
        <mxCell id="SawGWbbHjIbIcDN6ZOtn-59" value="Phone" style="text;align=left;verticalAlign=top;spacingLeft=4;spacingRight=4;overflow=hidden;rotatable=0;points=[[0,0.5],[1,0.5]];portConstraint=eastwest;" vertex="1" parent="SawGWbbHjIbIcDN6ZOtn-46">
          <mxGeometry y="338" width="160" height="26" as="geometry" />
        </mxCell>
        <mxCell id="SawGWbbHjIbIcDN6ZOtn-60" value="Fax" style="text;align=left;verticalAlign=top;spacingLeft=4;spacingRight=4;overflow=hidden;rotatable=0;points=[[0,0.5],[1,0.5]];portConstraint=eastwest;" vertex="1" parent="SawGWbbHjIbIcDN6ZOtn-46">
          <mxGeometry y="364" width="160" height="26" as="geometry" />
        </mxCell>
        <mxCell id="SawGWbbHjIbIcDN6ZOtn-61" value="Email" style="text;align=left;verticalAlign=top;spacingLeft=4;spacingRight=4;overflow=hidden;rotatable=0;points=[[0,0.5],[1,0.5]];portConstraint=eastwest;" vertex="1" parent="SawGWbbHjIbIcDN6ZOtn-46">
          <mxGeometry y="390" width="160" height="26" as="geometry" />
        </mxCell>
        <mxCell id="SawGWbbHjIbIcDN6ZOtn-62" style="edgeStyle=orthogonalEdgeStyle;rounded=0;orthogonalLoop=1;jettySize=auto;html=1;exitX=1;exitY=0.5;exitDx=0;exitDy=0;entryX=0;entryY=0.5;entryDx=0;entryDy=0;" edge="1" parent="SawGWbbHjIbIcDN6ZOtn-1" source="SawGWbbHjIbIcDN6ZOtn-36" target="SawGWbbHjIbIcDN6ZOtn-53">
          <mxGeometry relative="1" as="geometry" />
        </mxCell>
        <mxCell id="SawGWbbHjIbIcDN6ZOtn-63" value="Funcionário Responsável&amp;nbsp;&lt;br&gt;pela venda" style="edgeLabel;html=1;align=center;verticalAlign=middle;resizable=0;points=[];" vertex="1" connectable="0" parent="SawGWbbHjIbIcDN6ZOtn-62">
          <mxGeometry x="-0.3233" relative="1" as="geometry">
            <mxPoint x="16" y="-2" as="offset" />
          </mxGeometry>
        </mxCell>
        <mxCell id="SawGWbbHjIbIcDN6ZOtn-64" value="PlaylistTrack" style="swimlane;fontStyle=0;align=center;verticalAlign=top;childLayout=stackLayout;horizontal=1;startSize=26;horizontalStack=0;resizeParent=1;resizeLast=0;collapsible=1;marginBottom=0;rounded=0;shadow=0;strokeWidth=1;" vertex="1" parent="SawGWbbHjIbIcDN6ZOtn-1">
          <mxGeometry x="20" y="860" width="160" height="80" as="geometry">
            <mxRectangle x="130" y="380" width="160" height="26" as="alternateBounds" />
          </mxGeometry>
        </mxCell>
        <mxCell id="SawGWbbHjIbIcDN6ZOtn-65" value="PlaylistId" style="text;align=left;verticalAlign=top;spacingLeft=4;spacingRight=4;overflow=hidden;rotatable=0;points=[[0,0.5],[1,0.5]];portConstraint=eastwest;" vertex="1" parent="SawGWbbHjIbIcDN6ZOtn-64">
          <mxGeometry y="26" width="160" height="26" as="geometry" />
        </mxCell>
        <mxCell id="SawGWbbHjIbIcDN6ZOtn-66" value="TrackId" style="text;align=left;verticalAlign=top;spacingLeft=4;spacingRight=4;overflow=hidden;rotatable=0;points=[[0,0.5],[1,0.5]];portConstraint=eastwest;rounded=0;shadow=0;html=0;" vertex="1" parent="SawGWbbHjIbIcDN6ZOtn-64">
          <mxGeometry y="52" width="160" height="26" as="geometry" />
        </mxCell>
        <mxCell id="SawGWbbHjIbIcDN6ZOtn-67" value="Album" style="swimlane;fontStyle=0;align=center;verticalAlign=top;childLayout=stackLayout;horizontal=1;startSize=26;horizontalStack=0;resizeParent=1;resizeLast=0;collapsible=1;marginBottom=0;rounded=0;shadow=0;strokeWidth=1;" vertex="1" parent="SawGWbbHjIbIcDN6ZOtn-1">
          <mxGeometry x="490" y="580" width="110" height="110" as="geometry">
            <mxRectangle x="130" y="380" width="160" height="26" as="alternateBounds" />
          </mxGeometry>
        </mxCell>
        <mxCell id="SawGWbbHjIbIcDN6ZOtn-68" value="AlbumId" style="text;align=left;verticalAlign=top;spacingLeft=4;spacingRight=4;overflow=hidden;rotatable=0;points=[[0,0.5],[1,0.5]];portConstraint=eastwest;" vertex="1" parent="SawGWbbHjIbIcDN6ZOtn-67">
          <mxGeometry y="26" width="110" height="26" as="geometry" />
        </mxCell>
        <mxCell id="SawGWbbHjIbIcDN6ZOtn-69" value="Title" style="text;align=left;verticalAlign=top;spacingLeft=4;spacingRight=4;overflow=hidden;rotatable=0;points=[[0,0.5],[1,0.5]];portConstraint=eastwest;rounded=0;shadow=0;html=0;" vertex="1" parent="SawGWbbHjIbIcDN6ZOtn-67">
          <mxGeometry y="52" width="110" height="26" as="geometry" />
        </mxCell>
        <mxCell id="SawGWbbHjIbIcDN6ZOtn-70" value="ArtistId" style="text;align=left;verticalAlign=top;spacingLeft=4;spacingRight=4;overflow=hidden;rotatable=0;points=[[0,0.5],[1,0.5]];portConstraint=eastwest;fontStyle=4" vertex="1" parent="SawGWbbHjIbIcDN6ZOtn-67">
          <mxGeometry y="78" width="110" height="26" as="geometry" />
        </mxCell>
        <mxCell id="SawGWbbHjIbIcDN6ZOtn-71" value="Playlist" style="swimlane;fontStyle=0;align=center;verticalAlign=top;childLayout=stackLayout;horizontal=1;startSize=26;horizontalStack=0;resizeParent=1;resizeLast=0;collapsible=1;marginBottom=0;rounded=0;shadow=0;strokeWidth=1;" vertex="1" parent="SawGWbbHjIbIcDN6ZOtn-1">
          <mxGeometry x="260.00000000000006" y="945" width="160" height="80" as="geometry">
            <mxRectangle x="130" y="380" width="160" height="26" as="alternateBounds" />
          </mxGeometry>
        </mxCell>
        <mxCell id="SawGWbbHjIbIcDN6ZOtn-72" value="PlaylistId" style="text;align=left;verticalAlign=top;spacingLeft=4;spacingRight=4;overflow=hidden;rotatable=0;points=[[0,0.5],[1,0.5]];portConstraint=eastwest;" vertex="1" parent="SawGWbbHjIbIcDN6ZOtn-71">
          <mxGeometry y="26" width="160" height="26" as="geometry" />
        </mxCell>
        <mxCell id="SawGWbbHjIbIcDN6ZOtn-73" value="Name" style="text;align=left;verticalAlign=top;spacingLeft=4;spacingRight=4;overflow=hidden;rotatable=0;points=[[0,0.5],[1,0.5]];portConstraint=eastwest;rounded=0;shadow=0;html=0;" vertex="1" parent="SawGWbbHjIbIcDN6ZOtn-71">
          <mxGeometry y="52" width="160" height="26" as="geometry" />
        </mxCell>
        <mxCell id="SawGWbbHjIbIcDN6ZOtn-74" value="Artist" style="swimlane;fontStyle=0;align=center;verticalAlign=top;childLayout=stackLayout;horizontal=1;startSize=26;horizontalStack=0;resizeParent=1;resizeLast=0;collapsible=1;marginBottom=0;rounded=0;shadow=0;strokeWidth=1;" vertex="1" parent="SawGWbbHjIbIcDN6ZOtn-1">
          <mxGeometry x="639.9999999999999" y="640" width="160" height="80" as="geometry">
            <mxRectangle x="130" y="380" width="160" height="26" as="alternateBounds" />
          </mxGeometry>
        </mxCell>
        <mxCell id="SawGWbbHjIbIcDN6ZOtn-75" value="ArtistId" style="text;align=left;verticalAlign=top;spacingLeft=4;spacingRight=4;overflow=hidden;rotatable=0;points=[[0,0.5],[1,0.5]];portConstraint=eastwest;" vertex="1" parent="SawGWbbHjIbIcDN6ZOtn-74">
          <mxGeometry y="26" width="160" height="26" as="geometry" />
        </mxCell>
        <mxCell id="SawGWbbHjIbIcDN6ZOtn-76" value="Name" style="text;align=left;verticalAlign=top;spacingLeft=4;spacingRight=4;overflow=hidden;rotatable=0;points=[[0,0.5],[1,0.5]];portConstraint=eastwest;rounded=0;shadow=0;html=0;" vertex="1" parent="SawGWbbHjIbIcDN6ZOtn-74">
          <mxGeometry y="52" width="160" height="26" as="geometry" />
        </mxCell>
        <mxCell id="SawGWbbHjIbIcDN6ZOtn-77" value="Genre" style="swimlane;fontStyle=0;align=center;verticalAlign=top;childLayout=stackLayout;horizontal=1;startSize=26;horizontalStack=0;resizeParent=1;resizeLast=0;collapsible=1;marginBottom=0;rounded=0;shadow=0;strokeWidth=1;" vertex="1" parent="SawGWbbHjIbIcDN6ZOtn-1">
          <mxGeometry x="529.9999999999999" y="770" width="160" height="80" as="geometry">
            <mxRectangle x="130" y="380" width="160" height="26" as="alternateBounds" />
          </mxGeometry>
        </mxCell>
        <mxCell id="SawGWbbHjIbIcDN6ZOtn-78" value="GenreId" style="text;align=left;verticalAlign=top;spacingLeft=4;spacingRight=4;overflow=hidden;rotatable=0;points=[[0,0.5],[1,0.5]];portConstraint=eastwest;" vertex="1" parent="SawGWbbHjIbIcDN6ZOtn-77">
          <mxGeometry y="26" width="160" height="26" as="geometry" />
        </mxCell>
        <mxCell id="SawGWbbHjIbIcDN6ZOtn-79" value="Name" style="text;align=left;verticalAlign=top;spacingLeft=4;spacingRight=4;overflow=hidden;rotatable=0;points=[[0,0.5],[1,0.5]];portConstraint=eastwest;rounded=0;shadow=0;html=0;" vertex="1" parent="SawGWbbHjIbIcDN6ZOtn-77">
          <mxGeometry y="52" width="160" height="26" as="geometry" />
        </mxCell>
        <mxCell id="SawGWbbHjIbIcDN6ZOtn-80" value="MediaType" style="swimlane;fontStyle=0;align=center;verticalAlign=top;childLayout=stackLayout;horizontal=1;startSize=26;horizontalStack=0;resizeParent=1;resizeLast=0;collapsible=1;marginBottom=0;rounded=0;shadow=0;strokeWidth=1;" vertex="1" parent="SawGWbbHjIbIcDN6ZOtn-1">
          <mxGeometry x="599.9999999999999" y="940" width="160" height="90" as="geometry">
            <mxRectangle x="130" y="380" width="160" height="26" as="alternateBounds" />
          </mxGeometry>
        </mxCell>
        <mxCell id="SawGWbbHjIbIcDN6ZOtn-81" value="MediaTypeId" style="text;align=left;verticalAlign=top;spacingLeft=4;spacingRight=4;overflow=hidden;rotatable=0;points=[[0,0.5],[1,0.5]];portConstraint=eastwest;" vertex="1" parent="SawGWbbHjIbIcDN6ZOtn-80">
          <mxGeometry y="26" width="160" height="26" as="geometry" />
        </mxCell>
        <mxCell id="SawGWbbHjIbIcDN6ZOtn-82" value="Name" style="text;align=left;verticalAlign=top;spacingLeft=4;spacingRight=4;overflow=hidden;rotatable=0;points=[[0,0.5],[1,0.5]];portConstraint=eastwest;rounded=0;shadow=0;html=0;" vertex="1" parent="SawGWbbHjIbIcDN6ZOtn-80">
          <mxGeometry y="52" width="160" height="26" as="geometry" />
        </mxCell>
        <mxCell id="SawGWbbHjIbIcDN6ZOtn-83" style="edgeStyle=orthogonalEdgeStyle;rounded=0;orthogonalLoop=1;jettySize=auto;html=1;exitX=1;exitY=0.5;exitDx=0;exitDy=0;entryX=0;entryY=0.5;entryDx=0;entryDy=0;" edge="1" parent="SawGWbbHjIbIcDN6ZOtn-1" source="SawGWbbHjIbIcDN6ZOtn-22" target="SawGWbbHjIbIcDN6ZOtn-69">
          <mxGeometry relative="1" as="geometry" />
        </mxCell>
        <mxCell id="SawGWbbHjIbIcDN6ZOtn-84" value="Dimensões: Album da Musica" style="edgeLabel;html=1;align=center;verticalAlign=middle;resizable=0;points=[];" vertex="1" connectable="0" parent="SawGWbbHjIbIcDN6ZOtn-83">
          <mxGeometry x="-0.2475" y="1" relative="1" as="geometry">
            <mxPoint as="offset" />
          </mxGeometry>
        </mxCell>
        <mxCell id="SawGWbbHjIbIcDN6ZOtn-85" style="edgeStyle=orthogonalEdgeStyle;rounded=0;orthogonalLoop=1;jettySize=auto;html=1;exitX=1;exitY=0.5;exitDx=0;exitDy=0;entryX=-0.019;entryY=0.769;entryDx=0;entryDy=0;entryPerimeter=0;" edge="1" parent="SawGWbbHjIbIcDN6ZOtn-1" source="SawGWbbHjIbIcDN6ZOtn-69" target="SawGWbbHjIbIcDN6ZOtn-75">
          <mxGeometry relative="1" as="geometry" />
        </mxCell>
        <mxCell id="SawGWbbHjIbIcDN6ZOtn-86" style="edgeStyle=orthogonalEdgeStyle;rounded=0;orthogonalLoop=1;jettySize=auto;html=1;exitX=1;exitY=0.5;exitDx=0;exitDy=0;entryX=0.5;entryY=0;entryDx=0;entryDy=0;" edge="1" parent="SawGWbbHjIbIcDN6ZOtn-1" source="SawGWbbHjIbIcDN6ZOtn-24" target="SawGWbbHjIbIcDN6ZOtn-77">
          <mxGeometry relative="1" as="geometry" />
        </mxCell>
        <mxCell id="SawGWbbHjIbIcDN6ZOtn-87" value="Dimensões: Gênero da Musica" style="edgeLabel;html=1;align=center;verticalAlign=middle;resizable=0;points=[];" vertex="1" connectable="0" parent="SawGWbbHjIbIcDN6ZOtn-86">
          <mxGeometry x="-0.5343" y="4" relative="1" as="geometry">
            <mxPoint x="58" y="4" as="offset" />
          </mxGeometry>
        </mxCell>
        <mxCell id="SawGWbbHjIbIcDN6ZOtn-88" style="edgeStyle=orthogonalEdgeStyle;rounded=0;orthogonalLoop=1;jettySize=auto;html=1;exitX=1;exitY=0.5;exitDx=0;exitDy=0;" edge="1" parent="SawGWbbHjIbIcDN6ZOtn-1" source="SawGWbbHjIbIcDN6ZOtn-28" target="SawGWbbHjIbIcDN6ZOtn-81">
          <mxGeometry relative="1" as="geometry" />
        </mxCell>
        <mxCell id="SawGWbbHjIbIcDN6ZOtn-89" value="DImensões: Formato do arquivo da música" style="edgeLabel;html=1;align=center;verticalAlign=middle;resizable=0;points=[];" vertex="1" connectable="0" parent="SawGWbbHjIbIcDN6ZOtn-88">
          <mxGeometry x="-0.1404" y="-3" relative="1" as="geometry">
            <mxPoint x="33" y="14" as="offset" />
          </mxGeometry>
        </mxCell>
        <mxCell id="SawGWbbHjIbIcDN6ZOtn-90" style="edgeStyle=orthogonalEdgeStyle;rounded=0;orthogonalLoop=1;jettySize=auto;html=1;exitX=0;exitY=0.5;exitDx=0;exitDy=0;entryX=1;entryY=0.5;entryDx=0;entryDy=0;" edge="1" parent="SawGWbbHjIbIcDN6ZOtn-1" source="SawGWbbHjIbIcDN6ZOtn-23" target="SawGWbbHjIbIcDN6ZOtn-17">
          <mxGeometry relative="1" as="geometry" />
        </mxCell>
        <mxCell id="SawGWbbHjIbIcDN6ZOtn-91" style="edgeStyle=orthogonalEdgeStyle;rounded=0;orthogonalLoop=1;jettySize=auto;html=1;exitX=0;exitY=0.5;exitDx=0;exitDy=0;entryX=1;entryY=0.5;entryDx=0;entryDy=0;" edge="1" parent="SawGWbbHjIbIcDN6ZOtn-1" source="SawGWbbHjIbIcDN6ZOtn-25" target="SawGWbbHjIbIcDN6ZOtn-66">
          <mxGeometry relative="1" as="geometry" />
        </mxCell>
        <mxCell id="SawGWbbHjIbIcDN6ZOtn-92" value="Lista gerada a partir&lt;br&gt;da Musica: &quot;Radio da musica&quot;" style="edgeLabel;html=1;align=center;verticalAlign=middle;resizable=0;points=[];" vertex="1" connectable="0" parent="SawGWbbHjIbIcDN6ZOtn-91">
          <mxGeometry x="0.259" relative="1" as="geometry">
            <mxPoint x="-50" y="-71" as="offset" />
          </mxGeometry>
        </mxCell>
        <mxCell id="SawGWbbHjIbIcDN6ZOtn-93" style="edgeStyle=orthogonalEdgeStyle;rounded=0;orthogonalLoop=1;jettySize=auto;html=1;exitX=0;exitY=0.5;exitDx=0;exitDy=0;entryX=0.5;entryY=1;entryDx=0;entryDy=0;" edge="1" parent="SawGWbbHjIbIcDN6ZOtn-1" source="SawGWbbHjIbIcDN6ZOtn-72" target="SawGWbbHjIbIcDN6ZOtn-64">
          <mxGeometry relative="1" as="geometry" />
        </mxCell>
        <mxCell id="SawGWbbHjIbIcDN6ZOtn-114" value="Dimensão única de Playlist" style="edgeLabel;html=1;align=center;verticalAlign=middle;resizable=0;points=[];" vertex="1" connectable="0" parent="SawGWbbHjIbIcDN6ZOtn-93">
          <mxGeometry x="0.3025" y="3" relative="1" as="geometry">
            <mxPoint as="offset" />
          </mxGeometry>
        </mxCell>
        <mxCell id="SawGWbbHjIbIcDN6ZOtn-94" value="" style="endArrow=classic;html=1;entryX=0.5;entryY=0;entryDx=0;entryDy=0;" edge="1" parent="SawGWbbHjIbIcDN6ZOtn-1" target="SawGWbbHjIbIcDN6ZOtn-3">
          <mxGeometry width="50" height="50" relative="1" as="geometry">
            <mxPoint x="70.08" y="110" as="sourcePoint" />
            <mxPoint x="140.07999999999998" y="170" as="targetPoint" />
            <Array as="points" />
          </mxGeometry>
        </mxCell>
        <mxCell id="SawGWbbHjIbIcDN6ZOtn-95" value="Entidade" style="edgeLabel;html=1;align=center;verticalAlign=middle;resizable=0;points=[];" vertex="1" connectable="0" parent="SawGWbbHjIbIcDN6ZOtn-94">
          <mxGeometry x="-0.6177" y="1" relative="1" as="geometry">
            <mxPoint as="offset" />
          </mxGeometry>
        </mxCell>
        <mxCell id="SawGWbbHjIbIcDN6ZOtn-96" value="Tabela de Dimensões da Fatura&amp;nbsp;" style="edgeLabel;html=1;align=center;verticalAlign=middle;resizable=0;points=[];" vertex="1" connectable="0" parent="SawGWbbHjIbIcDN6ZOtn-94">
          <mxGeometry x="0.2882" y="1" relative="1" as="geometry">
            <mxPoint y="-1" as="offset" />
          </mxGeometry>
        </mxCell>
        <mxCell id="SawGWbbHjIbIcDN6ZOtn-97" value="" style="endArrow=classic;html=1;entryX=0.5;entryY=0;entryDx=0;entryDy=0;" edge="1" parent="SawGWbbHjIbIcDN6ZOtn-1">
          <mxGeometry width="50" height="50" relative="1" as="geometry">
            <mxPoint x="204.00000000000003" y="90" as="sourcePoint" />
            <mxPoint x="413.9999999999999" y="160" as="targetPoint" />
            <Array as="points" />
          </mxGeometry>
        </mxCell>
        <mxCell id="SawGWbbHjIbIcDN6ZOtn-98" value="Entidade" style="edgeLabel;html=1;align=center;verticalAlign=middle;resizable=0;points=[];" vertex="1" connectable="0" parent="SawGWbbHjIbIcDN6ZOtn-97">
          <mxGeometry x="-0.6177" y="1" relative="1" as="geometry">
            <mxPoint as="offset" />
          </mxGeometry>
        </mxCell>
        <mxCell id="SawGWbbHjIbIcDN6ZOtn-99" value="Tabela de Dimensões do Cliente" style="edgeLabel;html=1;align=center;verticalAlign=middle;resizable=0;points=[];" vertex="1" connectable="0" parent="SawGWbbHjIbIcDN6ZOtn-97">
          <mxGeometry x="0.2188" y="-3" relative="1" as="geometry">
            <mxPoint x="1" as="offset" />
          </mxGeometry>
        </mxCell>
        <mxCell id="SawGWbbHjIbIcDN6ZOtn-100" value="" style="endArrow=classic;html=1;entryX=0.5;entryY=0;entryDx=0;entryDy=0;" edge="1" parent="SawGWbbHjIbIcDN6ZOtn-1">
          <mxGeometry width="50" height="50" relative="1" as="geometry">
            <mxPoint x="456.99999999999994" y="50" as="sourcePoint" />
            <mxPoint x="667.0000000000002" y="120" as="targetPoint" />
            <Array as="points" />
          </mxGeometry>
        </mxCell>
        <mxCell id="SawGWbbHjIbIcDN6ZOtn-101" value="Entidade" style="edgeLabel;html=1;align=center;verticalAlign=middle;resizable=0;points=[];" vertex="1" connectable="0" parent="SawGWbbHjIbIcDN6ZOtn-100">
          <mxGeometry x="-0.6177" y="1" relative="1" as="geometry">
            <mxPoint as="offset" />
          </mxGeometry>
        </mxCell>
        <mxCell id="SawGWbbHjIbIcDN6ZOtn-102" value="Tabela de Dimensões do Funcionário" style="edgeLabel;html=1;align=center;verticalAlign=middle;resizable=0;points=[];" vertex="1" connectable="0" parent="SawGWbbHjIbIcDN6ZOtn-100">
          <mxGeometry x="0.2596" y="2" relative="1" as="geometry">
            <mxPoint x="-4" as="offset" />
          </mxGeometry>
        </mxCell>
        <mxCell id="SawGWbbHjIbIcDN6ZOtn-103" value="" style="endArrow=classic;html=1;entryX=0.5;entryY=0;entryDx=0;entryDy=0;" edge="1" parent="SawGWbbHjIbIcDN6ZOtn-1">
          <mxGeometry width="50" height="50" relative="1" as="geometry">
            <mxPoint x="260.00000000000006" y="595" as="sourcePoint" />
            <mxPoint x="400.00000000000006" y="650" as="targetPoint" />
            <Array as="points" />
          </mxGeometry>
        </mxCell>
        <mxCell id="SawGWbbHjIbIcDN6ZOtn-104" value="Entidade" style="edgeLabel;html=1;align=center;verticalAlign=middle;resizable=0;points=[];" vertex="1" connectable="0" parent="SawGWbbHjIbIcDN6ZOtn-103">
          <mxGeometry x="-0.6177" y="1" relative="1" as="geometry">
            <mxPoint x="23" y="6" as="offset" />
          </mxGeometry>
        </mxCell>
        <mxCell id="SawGWbbHjIbIcDN6ZOtn-105" value="DImensões da Musica" style="edgeLabel;html=1;align=center;verticalAlign=middle;resizable=0;points=[];" vertex="1" connectable="0" parent="SawGWbbHjIbIcDN6ZOtn-103">
          <mxGeometry x="0.2949" y="-3" relative="1" as="geometry">
            <mxPoint as="offset" />
          </mxGeometry>
        </mxCell>
        <mxCell id="SawGWbbHjIbIcDN6ZOtn-106" value="" style="endArrow=classic;html=1;entryX=0.5;entryY=0;entryDx=0;entryDy=0;" edge="1" parent="SawGWbbHjIbIcDN6ZOtn-1">
          <mxGeometry width="50" height="50" relative="1" as="geometry">
            <mxPoint x="10" y="535" as="sourcePoint" />
            <mxPoint x="150" y="590" as="targetPoint" />
            <Array as="points" />
          </mxGeometry>
        </mxCell>
        <mxCell id="SawGWbbHjIbIcDN6ZOtn-107" value="Tabela de Fatos&lt;br&gt;da Fatura" style="edgeLabel;html=1;align=center;verticalAlign=middle;resizable=0;points=[];" vertex="1" connectable="0" parent="SawGWbbHjIbIcDN6ZOtn-106">
          <mxGeometry x="-0.6177" y="1" relative="1" as="geometry">
            <mxPoint x="43" y="16" as="offset" />
          </mxGeometry>
        </mxCell>
        <mxCell id="SawGWbbHjIbIcDN6ZOtn-108" value="" style="endArrow=classic;html=1;entryX=0.5;entryY=0;entryDx=0;entryDy=0;" edge="1" parent="SawGWbbHjIbIcDN6ZOtn-1">
          <mxGeometry width="50" height="50" relative="1" as="geometry">
            <mxPoint x="619.9999999999999" y="580" as="sourcePoint" />
            <mxPoint x="759.9999999999999" y="635" as="targetPoint" />
            <Array as="points" />
          </mxGeometry>
        </mxCell>
        <mxCell id="SawGWbbHjIbIcDN6ZOtn-109" value="Pode ser normalizada dentro&lt;br&gt;da tabela Album atraves da PK ArtistId" style="edgeLabel;html=1;align=center;verticalAlign=middle;resizable=0;points=[];" vertex="1" connectable="0" parent="SawGWbbHjIbIcDN6ZOtn-108">
          <mxGeometry x="-0.6177" y="1" relative="1" as="geometry">
            <mxPoint x="63" y="12" as="offset" />
          </mxGeometry>
        </mxCell>
        <mxCell id="SawGWbbHjIbIcDN6ZOtn-110" value="" style="endArrow=classic;html=1;" edge="1" parent="SawGWbbHjIbIcDN6ZOtn-1">
          <mxGeometry width="50" height="50" relative="1" as="geometry">
            <mxPoint x="270.00000000000006" y="1115" as="sourcePoint" />
            <mxPoint x="369.00000000000006" y="1025" as="targetPoint" />
          </mxGeometry>
        </mxCell>
        <mxCell id="SawGWbbHjIbIcDN6ZOtn-111" value="Pode ser normalizada dentro da&lt;br&gt;Tabela PlaylistTrack pela Chave PlaylistId" style="edgeLabel;html=1;align=center;verticalAlign=middle;resizable=0;points=[];" vertex="1" connectable="0" parent="SawGWbbHjIbIcDN6ZOtn-110">
          <mxGeometry x="-0.2028" y="-7" relative="1" as="geometry">
            <mxPoint as="offset" />
          </mxGeometry>
        </mxCell>
        <mxCell id="SawGWbbHjIbIcDN6ZOtn-112" value="" style="endArrow=classic;html=1;" edge="1" parent="SawGWbbHjIbIcDN6ZOtn-1">
          <mxGeometry width="50" height="50" relative="1" as="geometry">
            <mxPoint x="809.9999999999999" y="900" as="sourcePoint" />
            <mxPoint x="689.9999999999999" y="820" as="targetPoint" />
          </mxGeometry>
        </mxCell>
        <mxCell id="SawGWbbHjIbIcDN6ZOtn-113" value="Pode ser normalizada dentro de&lt;br&gt;&#39;Track&#39;" style="edgeLabel;html=1;align=center;verticalAlign=middle;resizable=0;points=[];" vertex="1" connectable="0" parent="SawGWbbHjIbIcDN6ZOtn-112">
          <mxGeometry x="-0.207" y="-1" relative="1" as="geometry">
            <mxPoint x="-43" y="4" as="offset" />
          </mxGeometry>
        </mxCell>
      </root>
    </mxGraphModel>
  </diagram>
  <diagram name="Forma Normalizada - Lógica" id="HJzsxz9aje7kbaJv62Q_">
    <mxGraphModel dx="1150" dy="1133" grid="1" gridSize="10" guides="1" tooltips="1" connect="1" arrows="1" fold="1" page="1" pageScale="1" pageWidth="827" pageHeight="1169" math="0" shadow="0">
      <root>
        <mxCell id="wn4bw2J1ZEKO-96XifIB-0" />
        <mxCell id="wn4bw2J1ZEKO-96XifIB-1" parent="wn4bw2J1ZEKO-96XifIB-0" />
        <mxCell id="wn4bw2J1ZEKO-96XifIB-2" value="Invoice" style="swimlane;fontStyle=2;align=center;verticalAlign=top;childLayout=stackLayout;horizontal=1;startSize=26;horizontalStack=0;resizeParent=1;resizeLast=0;collapsible=1;marginBottom=0;rounded=0;shadow=0;strokeWidth=1;" vertex="1" parent="wn4bw2J1ZEKO-96XifIB-1">
          <mxGeometry x="80.07999999999998" y="180" width="160" height="260" as="geometry">
            <mxRectangle x="230" y="140" width="160" height="26" as="alternateBounds" />
          </mxGeometry>
        </mxCell>
        <mxCell id="wn4bw2J1ZEKO-96XifIB-3" value="PK - InvoiceId&#xa;" style="text;align=left;verticalAlign=top;spacingLeft=4;spacingRight=4;overflow=hidden;rotatable=0;points=[[0,0.5],[1,0.5]];portConstraint=eastwest;" vertex="1" parent="wn4bw2J1ZEKO-96XifIB-2">
          <mxGeometry y="26" width="160" height="26" as="geometry" />
        </mxCell>
        <mxCell id="wn4bw2J1ZEKO-96XifIB-4" value="CustomerId" style="text;align=left;verticalAlign=top;spacingLeft=4;spacingRight=4;overflow=hidden;rotatable=0;points=[[0,0.5],[1,0.5]];portConstraint=eastwest;" vertex="1" parent="wn4bw2J1ZEKO-96XifIB-2">
          <mxGeometry y="52" width="160" height="26" as="geometry" />
        </mxCell>
        <mxCell id="wn4bw2J1ZEKO-96XifIB-5" value="InvoiceDate" style="text;align=left;verticalAlign=top;spacingLeft=4;spacingRight=4;overflow=hidden;rotatable=0;points=[[0,0.5],[1,0.5]];portConstraint=eastwest;rounded=0;shadow=0;html=0;" vertex="1" parent="wn4bw2J1ZEKO-96XifIB-2">
          <mxGeometry y="78" width="160" height="26" as="geometry" />
        </mxCell>
        <mxCell id="wn4bw2J1ZEKO-96XifIB-6" value="BillingAddress" style="text;align=left;verticalAlign=top;spacingLeft=4;spacingRight=4;overflow=hidden;rotatable=0;points=[[0,0.5],[1,0.5]];portConstraint=eastwest;rounded=0;shadow=0;html=0;" vertex="1" parent="wn4bw2J1ZEKO-96XifIB-2">
          <mxGeometry y="104" width="160" height="26" as="geometry" />
        </mxCell>
        <mxCell id="wn4bw2J1ZEKO-96XifIB-7" value="BilliingCity" style="text;align=left;verticalAlign=top;spacingLeft=4;spacingRight=4;overflow=hidden;rotatable=0;points=[[0,0.5],[1,0.5]];portConstraint=eastwest;" vertex="1" parent="wn4bw2J1ZEKO-96XifIB-2">
          <mxGeometry y="130" width="160" height="26" as="geometry" />
        </mxCell>
        <mxCell id="wn4bw2J1ZEKO-96XifIB-8" value="BillingState" style="text;align=left;verticalAlign=top;spacingLeft=4;spacingRight=4;overflow=hidden;rotatable=0;points=[[0,0.5],[1,0.5]];portConstraint=eastwest;" vertex="1" parent="wn4bw2J1ZEKO-96XifIB-2">
          <mxGeometry y="156" width="160" height="26" as="geometry" />
        </mxCell>
        <mxCell id="wn4bw2J1ZEKO-96XifIB-9" value="BillingCountry" style="text;align=left;verticalAlign=top;spacingLeft=4;spacingRight=4;overflow=hidden;rotatable=0;points=[[0,0.5],[1,0.5]];portConstraint=eastwest;" vertex="1" parent="wn4bw2J1ZEKO-96XifIB-2">
          <mxGeometry y="182" width="160" height="26" as="geometry" />
        </mxCell>
        <mxCell id="wn4bw2J1ZEKO-96XifIB-10" value="BillingPostalCode" style="text;align=left;verticalAlign=top;spacingLeft=4;spacingRight=4;overflow=hidden;rotatable=0;points=[[0,0.5],[1,0.5]];portConstraint=eastwest;" vertex="1" parent="wn4bw2J1ZEKO-96XifIB-2">
          <mxGeometry y="208" width="160" height="26" as="geometry" />
        </mxCell>
        <mxCell id="wn4bw2J1ZEKO-96XifIB-11" value="Total" style="text;align=left;verticalAlign=top;spacingLeft=4;spacingRight=4;overflow=hidden;rotatable=0;points=[[0,0.5],[1,0.5]];portConstraint=eastwest;" vertex="1" parent="wn4bw2J1ZEKO-96XifIB-2">
          <mxGeometry y="234" width="160" height="26" as="geometry" />
        </mxCell>
        <mxCell id="wn4bw2J1ZEKO-96XifIB-12" value="InvoiceLine" style="swimlane;fontStyle=0;align=center;verticalAlign=top;childLayout=stackLayout;horizontal=1;startSize=26;horizontalStack=0;resizeParent=1;resizeLast=0;collapsible=1;marginBottom=0;rounded=0;shadow=0;strokeWidth=1;" vertex="1" parent="wn4bw2J1ZEKO-96XifIB-1">
          <mxGeometry x="80.08" y="590" width="160" height="156" as="geometry">
            <mxRectangle x="130" y="380" width="160" height="26" as="alternateBounds" />
          </mxGeometry>
        </mxCell>
        <mxCell id="wn4bw2J1ZEKO-96XifIB-13" value="PK - InvoiceLineId" style="text;align=left;verticalAlign=top;spacingLeft=4;spacingRight=4;overflow=hidden;rotatable=0;points=[[0,0.5],[1,0.5]];portConstraint=eastwest;" vertex="1" parent="wn4bw2J1ZEKO-96XifIB-12">
          <mxGeometry y="26" width="160" height="26" as="geometry" />
        </mxCell>
        <mxCell id="wn4bw2J1ZEKO-96XifIB-14" value="FK - InvoiceId" style="text;align=left;verticalAlign=top;spacingLeft=4;spacingRight=4;overflow=hidden;rotatable=0;points=[[0,0.5],[1,0.5]];portConstraint=eastwest;rounded=0;shadow=0;html=0;" vertex="1" parent="wn4bw2J1ZEKO-96XifIB-12">
          <mxGeometry y="52" width="160" height="26" as="geometry" />
        </mxCell>
        <mxCell id="wn4bw2J1ZEKO-96XifIB-15" value="FK - TrackId" style="text;align=left;verticalAlign=top;spacingLeft=4;spacingRight=4;overflow=hidden;rotatable=0;points=[[0,0.5],[1,0.5]];portConstraint=eastwest;fontStyle=4" vertex="1" parent="wn4bw2J1ZEKO-96XifIB-12">
          <mxGeometry y="78" width="160" height="26" as="geometry" />
        </mxCell>
        <mxCell id="wn4bw2J1ZEKO-96XifIB-16" value="UnitPrice" style="text;align=left;verticalAlign=top;spacingLeft=4;spacingRight=4;overflow=hidden;rotatable=0;points=[[0,0.5],[1,0.5]];portConstraint=eastwest;" vertex="1" parent="wn4bw2J1ZEKO-96XifIB-12">
          <mxGeometry y="104" width="160" height="26" as="geometry" />
        </mxCell>
        <mxCell id="wn4bw2J1ZEKO-96XifIB-17" value="Quantity" style="text;align=left;verticalAlign=top;spacingLeft=4;spacingRight=4;overflow=hidden;rotatable=0;points=[[0,0.5],[1,0.5]];portConstraint=eastwest;" vertex="1" parent="wn4bw2J1ZEKO-96XifIB-12">
          <mxGeometry y="130" width="160" height="26" as="geometry" />
        </mxCell>
        <mxCell id="wn4bw2J1ZEKO-96XifIB-18" value="" style="endArrow=block;endSize=10;endFill=0;shadow=0;strokeWidth=1;rounded=0;edgeStyle=elbowEdgeStyle;elbow=vertical;" edge="1" parent="wn4bw2J1ZEKO-96XifIB-1" source="wn4bw2J1ZEKO-96XifIB-12" target="wn4bw2J1ZEKO-96XifIB-2">
          <mxGeometry width="160" relative="1" as="geometry">
            <mxPoint x="180.07999999999998" y="263" as="sourcePoint" />
            <mxPoint x="180.07999999999998" y="263" as="targetPoint" />
          </mxGeometry>
        </mxCell>
        <mxCell id="wn4bw2J1ZEKO-96XifIB-19" value="Track" style="swimlane;fontStyle=0;align=center;verticalAlign=top;childLayout=stackLayout;horizontal=1;startSize=26;horizontalStack=0;resizeParent=1;resizeLast=0;collapsible=1;marginBottom=0;rounded=0;shadow=0;strokeWidth=1;" vertex="1" parent="wn4bw2J1ZEKO-96XifIB-1">
          <mxGeometry x="350.00000000000006" y="640" width="160" height="312" as="geometry">
            <mxRectangle x="340" y="380" width="170" height="26" as="alternateBounds" />
          </mxGeometry>
        </mxCell>
        <mxCell id="wn4bw2J1ZEKO-96XifIB-20" value="PK - TrackId" style="text;align=left;verticalAlign=top;spacingLeft=4;spacingRight=4;overflow=hidden;rotatable=0;points=[[0,0.5],[1,0.5]];portConstraint=eastwest;" vertex="1" parent="wn4bw2J1ZEKO-96XifIB-19">
          <mxGeometry y="26" width="160" height="26" as="geometry" />
        </mxCell>
        <mxCell id="wn4bw2J1ZEKO-96XifIB-21" value="Name" style="text;align=left;verticalAlign=top;spacingLeft=4;spacingRight=4;overflow=hidden;rotatable=0;points=[[0,0.5],[1,0.5]];portConstraint=eastwest;" vertex="1" parent="wn4bw2J1ZEKO-96XifIB-19">
          <mxGeometry y="52" width="160" height="26" as="geometry" />
        </mxCell>
        <mxCell id="wn4bw2J1ZEKO-96XifIB-22" value="AlbumId" style="text;align=left;verticalAlign=top;spacingLeft=4;spacingRight=4;overflow=hidden;rotatable=0;points=[[0,0.5],[1,0.5]];portConstraint=eastwest;" vertex="1" parent="wn4bw2J1ZEKO-96XifIB-19">
          <mxGeometry y="78" width="160" height="26" as="geometry" />
        </mxCell>
        <mxCell id="wn4bw2J1ZEKO-96XifIB-23" value="MediaTypeId" style="text;align=left;verticalAlign=top;spacingLeft=4;spacingRight=4;overflow=hidden;rotatable=0;points=[[0,0.5],[1,0.5]];portConstraint=eastwest;" vertex="1" parent="wn4bw2J1ZEKO-96XifIB-19">
          <mxGeometry y="104" width="160" height="26" as="geometry" />
        </mxCell>
        <mxCell id="xxZ9zxspw0MzlSKgUn3J-2" value="MediaTypeName&#xa;" style="text;align=left;verticalAlign=top;spacingLeft=4;spacingRight=4;overflow=hidden;rotatable=0;points=[[0,0.5],[1,0.5]];portConstraint=eastwest;" vertex="1" parent="wn4bw2J1ZEKO-96XifIB-19">
          <mxGeometry y="130" width="160" height="26" as="geometry" />
        </mxCell>
        <mxCell id="wn4bw2J1ZEKO-96XifIB-24" value="GenreId" style="text;align=left;verticalAlign=top;spacingLeft=4;spacingRight=4;overflow=hidden;rotatable=0;points=[[0,0.5],[1,0.5]];portConstraint=eastwest;" vertex="1" parent="wn4bw2J1ZEKO-96XifIB-19">
          <mxGeometry y="156" width="160" height="26" as="geometry" />
        </mxCell>
        <mxCell id="xxZ9zxspw0MzlSKgUn3J-1" value="GenreName" style="text;align=left;verticalAlign=top;spacingLeft=4;spacingRight=4;overflow=hidden;rotatable=0;points=[[0,0.5],[1,0.5]];portConstraint=eastwest;" vertex="1" parent="wn4bw2J1ZEKO-96XifIB-19">
          <mxGeometry y="182" width="160" height="26" as="geometry" />
        </mxCell>
        <mxCell id="wn4bw2J1ZEKO-96XifIB-25" value="Composer" style="text;align=left;verticalAlign=top;spacingLeft=4;spacingRight=4;overflow=hidden;rotatable=0;points=[[0,0.5],[1,0.5]];portConstraint=eastwest;" vertex="1" parent="wn4bw2J1ZEKO-96XifIB-19">
          <mxGeometry y="208" width="160" height="26" as="geometry" />
        </mxCell>
        <mxCell id="wn4bw2J1ZEKO-96XifIB-26" value="Milliseconds&#xa;" style="text;align=left;verticalAlign=top;spacingLeft=4;spacingRight=4;overflow=hidden;rotatable=0;points=[[0,0.5],[1,0.5]];portConstraint=eastwest;" vertex="1" parent="wn4bw2J1ZEKO-96XifIB-19">
          <mxGeometry y="234" width="160" height="26" as="geometry" />
        </mxCell>
        <mxCell id="wn4bw2J1ZEKO-96XifIB-27" value="Bytes" style="text;align=left;verticalAlign=top;spacingLeft=4;spacingRight=4;overflow=hidden;rotatable=0;points=[[0,0.5],[1,0.5]];portConstraint=eastwest;" vertex="1" parent="wn4bw2J1ZEKO-96XifIB-19">
          <mxGeometry y="260" width="160" height="26" as="geometry" />
        </mxCell>
        <mxCell id="wn4bw2J1ZEKO-96XifIB-28" value="UnitPrice" style="text;align=left;verticalAlign=top;spacingLeft=4;spacingRight=4;overflow=hidden;rotatable=0;points=[[0,0.5],[1,0.5]];portConstraint=eastwest;" vertex="1" parent="wn4bw2J1ZEKO-96XifIB-19">
          <mxGeometry y="286" width="160" height="26" as="geometry" />
        </mxCell>
        <mxCell id="wn4bw2J1ZEKO-96XifIB-29" value="Customer" style="swimlane;fontStyle=0;align=center;verticalAlign=top;childLayout=stackLayout;horizontal=1;startSize=26;horizontalStack=0;resizeParent=1;resizeLast=0;collapsible=1;marginBottom=0;rounded=0;shadow=0;strokeWidth=1;" vertex="1" parent="wn4bw2J1ZEKO-96XifIB-1">
          <mxGeometry x="369.9999999999999" y="160" width="160" height="364" as="geometry">
            <mxRectangle x="550" y="140" width="160" height="26" as="alternateBounds" />
          </mxGeometry>
        </mxCell>
        <mxCell id="wn4bw2J1ZEKO-96XifIB-30" value="PK - CustomerId" style="text;align=left;verticalAlign=top;spacingLeft=4;spacingRight=4;overflow=hidden;rotatable=0;points=[[0,0.5],[1,0.5]];portConstraint=eastwest;" vertex="1" parent="wn4bw2J1ZEKO-96XifIB-29">
          <mxGeometry y="26" width="160" height="26" as="geometry" />
        </mxCell>
        <mxCell id="wn4bw2J1ZEKO-96XifIB-31" value="FirstName" style="text;align=left;verticalAlign=top;spacingLeft=4;spacingRight=4;overflow=hidden;rotatable=0;points=[[0,0.5],[1,0.5]];portConstraint=eastwest;rounded=0;shadow=0;html=0;" vertex="1" parent="wn4bw2J1ZEKO-96XifIB-29">
          <mxGeometry y="52" width="160" height="26" as="geometry" />
        </mxCell>
        <mxCell id="wn4bw2J1ZEKO-96XifIB-32" value="LastName" style="text;align=left;verticalAlign=top;spacingLeft=4;spacingRight=4;overflow=hidden;rotatable=0;points=[[0,0.5],[1,0.5]];portConstraint=eastwest;rounded=0;shadow=0;html=0;" vertex="1" parent="wn4bw2J1ZEKO-96XifIB-29">
          <mxGeometry y="78" width="160" height="26" as="geometry" />
        </mxCell>
        <mxCell id="wn4bw2J1ZEKO-96XifIB-33" value="Company" style="text;align=left;verticalAlign=top;spacingLeft=4;spacingRight=4;overflow=hidden;rotatable=0;points=[[0,0.5],[1,0.5]];portConstraint=eastwest;rounded=0;shadow=0;html=0;" vertex="1" parent="wn4bw2J1ZEKO-96XifIB-29">
          <mxGeometry y="104" width="160" height="26" as="geometry" />
        </mxCell>
        <mxCell id="wn4bw2J1ZEKO-96XifIB-34" value="Address" style="text;align=left;verticalAlign=top;spacingLeft=4;spacingRight=4;overflow=hidden;rotatable=0;points=[[0,0.5],[1,0.5]];portConstraint=eastwest;rounded=0;shadow=0;html=0;" vertex="1" parent="wn4bw2J1ZEKO-96XifIB-29">
          <mxGeometry y="130" width="160" height="26" as="geometry" />
        </mxCell>
        <mxCell id="wn4bw2J1ZEKO-96XifIB-35" value="City" style="text;align=left;verticalAlign=top;spacingLeft=4;spacingRight=4;overflow=hidden;rotatable=0;points=[[0,0.5],[1,0.5]];portConstraint=eastwest;" vertex="1" parent="wn4bw2J1ZEKO-96XifIB-29">
          <mxGeometry y="156" width="160" height="26" as="geometry" />
        </mxCell>
        <mxCell id="wn4bw2J1ZEKO-96XifIB-36" value="State" style="text;align=left;verticalAlign=top;spacingLeft=4;spacingRight=4;overflow=hidden;rotatable=0;points=[[0,0.5],[1,0.5]];portConstraint=eastwest;" vertex="1" parent="wn4bw2J1ZEKO-96XifIB-29">
          <mxGeometry y="182" width="160" height="26" as="geometry" />
        </mxCell>
        <mxCell id="wn4bw2J1ZEKO-96XifIB-37" value="Country" style="text;align=left;verticalAlign=top;spacingLeft=4;spacingRight=4;overflow=hidden;rotatable=0;points=[[0,0.5],[1,0.5]];portConstraint=eastwest;" vertex="1" parent="wn4bw2J1ZEKO-96XifIB-29">
          <mxGeometry y="208" width="160" height="26" as="geometry" />
        </mxCell>
        <mxCell id="wn4bw2J1ZEKO-96XifIB-38" value="PostalCode" style="text;align=left;verticalAlign=top;spacingLeft=4;spacingRight=4;overflow=hidden;rotatable=0;points=[[0,0.5],[1,0.5]];portConstraint=eastwest;" vertex="1" parent="wn4bw2J1ZEKO-96XifIB-29">
          <mxGeometry y="234" width="160" height="26" as="geometry" />
        </mxCell>
        <mxCell id="wn4bw2J1ZEKO-96XifIB-39" value="Phone" style="text;align=left;verticalAlign=top;spacingLeft=4;spacingRight=4;overflow=hidden;rotatable=0;points=[[0,0.5],[1,0.5]];portConstraint=eastwest;" vertex="1" parent="wn4bw2J1ZEKO-96XifIB-29">
          <mxGeometry y="260" width="160" height="26" as="geometry" />
        </mxCell>
        <mxCell id="wn4bw2J1ZEKO-96XifIB-40" value="Fax" style="text;align=left;verticalAlign=top;spacingLeft=4;spacingRight=4;overflow=hidden;rotatable=0;points=[[0,0.5],[1,0.5]];portConstraint=eastwest;" vertex="1" parent="wn4bw2J1ZEKO-96XifIB-29">
          <mxGeometry y="286" width="160" height="26" as="geometry" />
        </mxCell>
        <mxCell id="wn4bw2J1ZEKO-96XifIB-41" value="Email" style="text;align=left;verticalAlign=top;spacingLeft=4;spacingRight=4;overflow=hidden;rotatable=0;points=[[0,0.5],[1,0.5]];portConstraint=eastwest;" vertex="1" parent="wn4bw2J1ZEKO-96XifIB-29">
          <mxGeometry y="312" width="160" height="26" as="geometry" />
        </mxCell>
        <mxCell id="wn4bw2J1ZEKO-96XifIB-42" value="SupportRepId" style="text;align=left;verticalAlign=top;spacingLeft=4;spacingRight=4;overflow=hidden;rotatable=0;points=[[0,0.5],[1,0.5]];portConstraint=eastwest;" vertex="1" parent="wn4bw2J1ZEKO-96XifIB-29">
          <mxGeometry y="338" width="160" height="26" as="geometry" />
        </mxCell>
        <mxCell id="wn4bw2J1ZEKO-96XifIB-43" value="" style="endArrow=open;shadow=0;strokeWidth=1;rounded=0;endFill=1;edgeStyle=elbowEdgeStyle;elbow=vertical;" edge="1" parent="wn4bw2J1ZEKO-96XifIB-1" source="wn4bw2J1ZEKO-96XifIB-2" target="wn4bw2J1ZEKO-96XifIB-29">
          <mxGeometry x="0.5" y="41" relative="1" as="geometry">
            <mxPoint x="360.08000000000004" y="252" as="sourcePoint" />
            <mxPoint x="520.08" y="252" as="targetPoint" />
            <mxPoint x="-40" y="32" as="offset" />
          </mxGeometry>
        </mxCell>
        <mxCell id="wn4bw2J1ZEKO-96XifIB-45" value="Employee" style="swimlane;fontStyle=0;align=center;verticalAlign=top;childLayout=stackLayout;horizontal=1;startSize=26;horizontalStack=0;resizeParent=1;resizeLast=0;collapsible=1;marginBottom=0;rounded=0;shadow=0;strokeWidth=1;" vertex="1" parent="wn4bw2J1ZEKO-96XifIB-1">
          <mxGeometry x="649.9999999999999" y="120" width="160" height="420" as="geometry">
            <mxRectangle x="550" y="140" width="160" height="26" as="alternateBounds" />
          </mxGeometry>
        </mxCell>
        <mxCell id="wn4bw2J1ZEKO-96XifIB-46" value="PK - EmployeeId" style="text;align=left;verticalAlign=top;spacingLeft=4;spacingRight=4;overflow=hidden;rotatable=0;points=[[0,0.5],[1,0.5]];portConstraint=eastwest;" vertex="1" parent="wn4bw2J1ZEKO-96XifIB-45">
          <mxGeometry y="26" width="160" height="26" as="geometry" />
        </mxCell>
        <mxCell id="wn4bw2J1ZEKO-96XifIB-47" value="FirstName" style="text;align=left;verticalAlign=top;spacingLeft=4;spacingRight=4;overflow=hidden;rotatable=0;points=[[0,0.5],[1,0.5]];portConstraint=eastwest;rounded=0;shadow=0;html=0;" vertex="1" parent="wn4bw2J1ZEKO-96XifIB-45">
          <mxGeometry y="52" width="160" height="26" as="geometry" />
        </mxCell>
        <mxCell id="wn4bw2J1ZEKO-96XifIB-48" value="LastName" style="text;align=left;verticalAlign=top;spacingLeft=4;spacingRight=4;overflow=hidden;rotatable=0;points=[[0,0.5],[1,0.5]];portConstraint=eastwest;rounded=0;shadow=0;html=0;" vertex="1" parent="wn4bw2J1ZEKO-96XifIB-45">
          <mxGeometry y="78" width="160" height="26" as="geometry" />
        </mxCell>
        <mxCell id="wn4bw2J1ZEKO-96XifIB-49" value="Title" style="text;align=left;verticalAlign=top;spacingLeft=4;spacingRight=4;overflow=hidden;rotatable=0;points=[[0,0.5],[1,0.5]];portConstraint=eastwest;rounded=0;shadow=0;html=0;" vertex="1" parent="wn4bw2J1ZEKO-96XifIB-45">
          <mxGeometry y="104" width="160" height="26" as="geometry" />
        </mxCell>
        <mxCell id="wn4bw2J1ZEKO-96XifIB-50" value="ReportsTo&#xa;" style="text;align=left;verticalAlign=top;spacingLeft=4;spacingRight=4;overflow=hidden;rotatable=0;points=[[0,0.5],[1,0.5]];portConstraint=eastwest;rounded=0;shadow=0;html=0;" vertex="1" parent="wn4bw2J1ZEKO-96XifIB-45">
          <mxGeometry y="130" width="160" height="26" as="geometry" />
        </mxCell>
        <mxCell id="wn4bw2J1ZEKO-96XifIB-51" value="BirthDate" style="text;align=left;verticalAlign=top;spacingLeft=4;spacingRight=4;overflow=hidden;rotatable=0;points=[[0,0.5],[1,0.5]];portConstraint=eastwest;" vertex="1" parent="wn4bw2J1ZEKO-96XifIB-45">
          <mxGeometry y="156" width="160" height="26" as="geometry" />
        </mxCell>
        <mxCell id="wn4bw2J1ZEKO-96XifIB-52" value="HireDate" style="text;align=left;verticalAlign=top;spacingLeft=4;spacingRight=4;overflow=hidden;rotatable=0;points=[[0,0.5],[1,0.5]];portConstraint=eastwest;" vertex="1" parent="wn4bw2J1ZEKO-96XifIB-45">
          <mxGeometry y="182" width="160" height="26" as="geometry" />
        </mxCell>
        <mxCell id="wn4bw2J1ZEKO-96XifIB-53" value="Address" style="text;align=left;verticalAlign=top;spacingLeft=4;spacingRight=4;overflow=hidden;rotatable=0;points=[[0,0.5],[1,0.5]];portConstraint=eastwest;rounded=0;shadow=0;html=0;" vertex="1" parent="wn4bw2J1ZEKO-96XifIB-45">
          <mxGeometry y="208" width="160" height="26" as="geometry" />
        </mxCell>
        <mxCell id="wn4bw2J1ZEKO-96XifIB-54" value="City" style="text;align=left;verticalAlign=top;spacingLeft=4;spacingRight=4;overflow=hidden;rotatable=0;points=[[0,0.5],[1,0.5]];portConstraint=eastwest;" vertex="1" parent="wn4bw2J1ZEKO-96XifIB-45">
          <mxGeometry y="234" width="160" height="26" as="geometry" />
        </mxCell>
        <mxCell id="wn4bw2J1ZEKO-96XifIB-55" value="State" style="text;align=left;verticalAlign=top;spacingLeft=4;spacingRight=4;overflow=hidden;rotatable=0;points=[[0,0.5],[1,0.5]];portConstraint=eastwest;" vertex="1" parent="wn4bw2J1ZEKO-96XifIB-45">
          <mxGeometry y="260" width="160" height="26" as="geometry" />
        </mxCell>
        <mxCell id="wn4bw2J1ZEKO-96XifIB-56" value="Country" style="text;align=left;verticalAlign=top;spacingLeft=4;spacingRight=4;overflow=hidden;rotatable=0;points=[[0,0.5],[1,0.5]];portConstraint=eastwest;" vertex="1" parent="wn4bw2J1ZEKO-96XifIB-45">
          <mxGeometry y="286" width="160" height="26" as="geometry" />
        </mxCell>
        <mxCell id="wn4bw2J1ZEKO-96XifIB-57" value="PostalCode" style="text;align=left;verticalAlign=top;spacingLeft=4;spacingRight=4;overflow=hidden;rotatable=0;points=[[0,0.5],[1,0.5]];portConstraint=eastwest;" vertex="1" parent="wn4bw2J1ZEKO-96XifIB-45">
          <mxGeometry y="312" width="160" height="26" as="geometry" />
        </mxCell>
        <mxCell id="wn4bw2J1ZEKO-96XifIB-58" value="Phone" style="text;align=left;verticalAlign=top;spacingLeft=4;spacingRight=4;overflow=hidden;rotatable=0;points=[[0,0.5],[1,0.5]];portConstraint=eastwest;" vertex="1" parent="wn4bw2J1ZEKO-96XifIB-45">
          <mxGeometry y="338" width="160" height="26" as="geometry" />
        </mxCell>
        <mxCell id="wn4bw2J1ZEKO-96XifIB-59" value="Fax" style="text;align=left;verticalAlign=top;spacingLeft=4;spacingRight=4;overflow=hidden;rotatable=0;points=[[0,0.5],[1,0.5]];portConstraint=eastwest;" vertex="1" parent="wn4bw2J1ZEKO-96XifIB-45">
          <mxGeometry y="364" width="160" height="26" as="geometry" />
        </mxCell>
        <mxCell id="wn4bw2J1ZEKO-96XifIB-60" value="Email" style="text;align=left;verticalAlign=top;spacingLeft=4;spacingRight=4;overflow=hidden;rotatable=0;points=[[0,0.5],[1,0.5]];portConstraint=eastwest;" vertex="1" parent="wn4bw2J1ZEKO-96XifIB-45">
          <mxGeometry y="390" width="160" height="26" as="geometry" />
        </mxCell>
        <mxCell id="wn4bw2J1ZEKO-96XifIB-61" style="edgeStyle=orthogonalEdgeStyle;rounded=0;orthogonalLoop=1;jettySize=auto;html=1;exitX=1;exitY=0.5;exitDx=0;exitDy=0;entryX=0;entryY=0.5;entryDx=0;entryDy=0;" edge="1" parent="wn4bw2J1ZEKO-96XifIB-1" source="wn4bw2J1ZEKO-96XifIB-35" target="wn4bw2J1ZEKO-96XifIB-52">
          <mxGeometry relative="1" as="geometry" />
        </mxCell>
        <mxCell id="wn4bw2J1ZEKO-96XifIB-63" value="PlaylistTrack" style="swimlane;fontStyle=0;align=center;verticalAlign=top;childLayout=stackLayout;horizontal=1;startSize=26;horizontalStack=0;resizeParent=1;resizeLast=0;collapsible=1;marginBottom=0;rounded=0;shadow=0;strokeWidth=1;" vertex="1" parent="wn4bw2J1ZEKO-96XifIB-1">
          <mxGeometry x="60" y="880" width="160" height="104" as="geometry">
            <mxRectangle x="130" y="380" width="160" height="26" as="alternateBounds" />
          </mxGeometry>
        </mxCell>
        <mxCell id="wn4bw2J1ZEKO-96XifIB-64" value="PK - PlaylistId" style="text;align=left;verticalAlign=top;spacingLeft=4;spacingRight=4;overflow=hidden;rotatable=0;points=[[0,0.5],[1,0.5]];portConstraint=eastwest;" vertex="1" parent="wn4bw2J1ZEKO-96XifIB-63">
          <mxGeometry y="26" width="160" height="26" as="geometry" />
        </mxCell>
        <mxCell id="xxZ9zxspw0MzlSKgUn3J-3" value="PlaylistName" style="text;align=left;verticalAlign=top;spacingLeft=4;spacingRight=4;overflow=hidden;rotatable=0;points=[[0,0.5],[1,0.5]];portConstraint=eastwest;" vertex="1" parent="wn4bw2J1ZEKO-96XifIB-63">
          <mxGeometry y="52" width="160" height="26" as="geometry" />
        </mxCell>
        <mxCell id="wn4bw2J1ZEKO-96XifIB-65" value="TrackId" style="text;align=left;verticalAlign=top;spacingLeft=4;spacingRight=4;overflow=hidden;rotatable=0;points=[[0,0.5],[1,0.5]];portConstraint=eastwest;rounded=0;shadow=0;html=0;" vertex="1" parent="wn4bw2J1ZEKO-96XifIB-63">
          <mxGeometry y="78" width="160" height="26" as="geometry" />
        </mxCell>
        <mxCell id="wn4bw2J1ZEKO-96XifIB-66" value="Album" style="swimlane;fontStyle=0;align=center;verticalAlign=top;childLayout=stackLayout;horizontal=1;startSize=26;horizontalStack=0;resizeParent=1;resizeLast=0;collapsible=1;marginBottom=0;rounded=0;shadow=0;strokeWidth=1;" vertex="1" parent="wn4bw2J1ZEKO-96XifIB-1">
          <mxGeometry x="580" y="710" width="110" height="130" as="geometry">
            <mxRectangle x="130" y="380" width="160" height="26" as="alternateBounds" />
          </mxGeometry>
        </mxCell>
        <mxCell id="wn4bw2J1ZEKO-96XifIB-67" value="PK - AlbumId" style="text;align=left;verticalAlign=top;spacingLeft=4;spacingRight=4;overflow=hidden;rotatable=0;points=[[0,0.5],[1,0.5]];portConstraint=eastwest;" vertex="1" parent="wn4bw2J1ZEKO-96XifIB-66">
          <mxGeometry y="26" width="110" height="26" as="geometry" />
        </mxCell>
        <mxCell id="wn4bw2J1ZEKO-96XifIB-68" value="Title" style="text;align=left;verticalAlign=top;spacingLeft=4;spacingRight=4;overflow=hidden;rotatable=0;points=[[0,0.5],[1,0.5]];portConstraint=eastwest;rounded=0;shadow=0;html=0;" vertex="1" parent="wn4bw2J1ZEKO-96XifIB-66">
          <mxGeometry y="52" width="110" height="26" as="geometry" />
        </mxCell>
        <mxCell id="wn4bw2J1ZEKO-96XifIB-69" value="ArtistId" style="text;align=left;verticalAlign=top;spacingLeft=4;spacingRight=4;overflow=hidden;rotatable=0;points=[[0,0.5],[1,0.5]];portConstraint=eastwest;fontStyle=4" vertex="1" parent="wn4bw2J1ZEKO-96XifIB-66">
          <mxGeometry y="78" width="110" height="26" as="geometry" />
        </mxCell>
        <mxCell id="xxZ9zxspw0MzlSKgUn3J-0" value="ArtistName" style="text;align=left;verticalAlign=top;spacingLeft=4;spacingRight=4;overflow=hidden;rotatable=0;points=[[0,0.5],[1,0.5]];portConstraint=eastwest;fontStyle=4" vertex="1" parent="wn4bw2J1ZEKO-96XifIB-66">
          <mxGeometry y="104" width="110" height="26" as="geometry" />
        </mxCell>
        <mxCell id="wn4bw2J1ZEKO-96XifIB-82" style="edgeStyle=orthogonalEdgeStyle;rounded=0;orthogonalLoop=1;jettySize=auto;html=1;exitX=1;exitY=0.5;exitDx=0;exitDy=0;entryX=0;entryY=0.5;entryDx=0;entryDy=0;" edge="1" parent="wn4bw2J1ZEKO-96XifIB-1" source="wn4bw2J1ZEKO-96XifIB-21" target="wn4bw2J1ZEKO-96XifIB-68">
          <mxGeometry relative="1" as="geometry" />
        </mxCell>
        <mxCell id="wn4bw2J1ZEKO-96XifIB-89" style="edgeStyle=orthogonalEdgeStyle;rounded=0;orthogonalLoop=1;jettySize=auto;html=1;exitX=0;exitY=0.5;exitDx=0;exitDy=0;entryX=1;entryY=0.5;entryDx=0;entryDy=0;" edge="1" parent="wn4bw2J1ZEKO-96XifIB-1" source="wn4bw2J1ZEKO-96XifIB-22" target="wn4bw2J1ZEKO-96XifIB-16">
          <mxGeometry relative="1" as="geometry" />
        </mxCell>
        <mxCell id="wn4bw2J1ZEKO-96XifIB-90" style="edgeStyle=orthogonalEdgeStyle;rounded=0;orthogonalLoop=1;jettySize=auto;html=1;exitX=0;exitY=0.5;exitDx=0;exitDy=0;entryX=1;entryY=0.5;entryDx=0;entryDy=0;" edge="1" parent="wn4bw2J1ZEKO-96XifIB-1" source="wn4bw2J1ZEKO-96XifIB-24" target="wn4bw2J1ZEKO-96XifIB-65">
          <mxGeometry relative="1" as="geometry" />
        </mxCell>
      </root>
    </mxGraphModel>
  </diagram>
</mxfile>
